<svg width="20" height="21" viewBox="0 0 20 21" fill="none" xmlns="http://www.w3.org/2000/svg">
<path d="M0.5 8.09758L0.5 8.09723C0.499935 8.00189 0.521479 7.90794 0.562798 7.82263C0.604109 7.73733 0.663998 7.66309 0.737573 7.60535C0.737575 7.60535 0.737576 7.60534 0.737578 7.60534L9.62646 0.62952L9.31798 0.236441L9.62647 0.629516C9.73378 0.545296 9.86523 0.5 10 0.5C10.1348 0.5 10.2662 0.545296 10.3735 0.629516L10.682 0.236441L10.3735 0.62952L19.2624 7.60535C19.336 7.66309 19.3959 7.73733 19.4372 7.82263C19.4785 7.90794 19.5001 8.00188 19.5 8.09723V8.09758V19.879C19.5 20.0451 19.4346 20.2036 19.3195 20.3197C19.2045 20.4357 19.0495 20.5 18.8889 20.5H1.11111C0.950466 20.5 0.7955 20.4357 0.680548 20.3197C0.565449 20.2036 0.5 20.0451 0.5 19.879L0.5 8.09758Z" stroke="black"/>
</svg>
