<svg width="18" height="17" viewBox="0 0 18 17" fill="none" xmlns="http://www.w3.org/2000/svg">
<path d="M8.9999 0.5C13.8332 0.5 17.7507 3.55333 17.7507 7.32083C17.7507 11.0875 13.8332 14.1408 9.00073 14.1408C8.51958 14.14 8.03894 14.1094 7.56157 14.0492L3.88823 16.4517C3.47073 16.6725 3.32323 16.6483 3.4949 16.1075L4.23823 13.0425C1.83823 11.8258 0.250732 9.7175 0.250732 7.32083C0.250732 3.55417 4.1674 0.5 9.00073 0.5M13.9241 7.21667L15.1491 6.03C15.2198 5.95659 15.2592 5.85861 15.2591 5.7567C15.2589 5.6548 15.2193 5.55691 15.1484 5.48367C15.0775 5.41044 14.981 5.36756 14.8792 5.36408C14.7773 5.36059 14.6781 5.39677 14.6024 5.465L12.9957 7.02V5.735C12.9957 5.63068 12.9543 5.53064 12.8805 5.45687C12.8068 5.38311 12.7067 5.34167 12.6024 5.34167C12.4981 5.34167 12.398 5.38311 12.3243 5.45687C12.2505 5.53064 12.2091 5.63068 12.2091 5.735V7.86583C12.1952 7.92672 12.1952 7.98995 12.2091 8.05083V9.25C12.2091 9.35432 12.2505 9.45436 12.3243 9.52813C12.398 9.60189 12.4981 9.64333 12.6024 9.64333C12.7067 9.64333 12.8068 9.60189 12.8805 9.52813C12.9543 9.45436 12.9957 9.35432 12.9957 9.25V8.11417L13.3516 7.77L14.5416 9.46417C14.5713 9.50646 14.609 9.54249 14.6527 9.5702C14.6963 9.59791 14.745 9.61675 14.7959 9.62565C14.8468 9.63455 14.899 9.63333 14.9494 9.62207C14.9999 9.6108 15.0476 9.58971 15.0899 9.56C15.1322 9.53029 15.1682 9.49254 15.1959 9.4489C15.2236 9.40526 15.2425 9.3566 15.2514 9.30568C15.2603 9.25476 15.2591 9.20259 15.2478 9.15215C15.2365 9.1017 15.2154 9.05396 15.1857 9.01167L13.9241 7.21667ZM11.4591 8.82H10.2424V5.7475C10.2377 5.64642 10.1943 5.55103 10.1211 5.48114C10.048 5.41126 9.95067 5.37227 9.84948 5.37227C9.7483 5.37227 9.651 5.41126 9.57783 5.48114C9.50465 5.55103 9.46122 5.64642 9.45657 5.7475V9.21333C9.45657 9.43 9.63157 9.60667 9.84906 9.60667H11.4591C11.5634 9.60667 11.6634 9.56523 11.7372 9.49146C11.811 9.4177 11.8524 9.31765 11.8524 9.21333C11.8524 9.10902 11.811 9.00897 11.7372 8.93521C11.6634 8.86144 11.5634 8.82 11.4591 8.82ZM6.57823 7.91083L7.15823 6.4875L7.6899 7.91L6.57823 7.91083ZM8.68073 8.31667L8.6824 8.30333C8.68212 8.20426 8.6443 8.10897 8.57656 8.03667L7.7049 5.70333C7.66836 5.59214 7.59876 5.49475 7.50539 5.42416C7.41202 5.35358 7.29934 5.31317 7.1824 5.30833C7.0647 5.30828 6.94975 5.34383 6.85263 5.41031C6.75551 5.47679 6.68077 5.5711 6.63823 5.68083L5.25323 9.07667C5.21378 9.17325 5.21431 9.28155 5.25471 9.37774C5.29511 9.47393 5.37207 9.55013 5.46865 9.58958C5.56523 9.62903 5.67353 9.6285 5.76972 9.5881C5.86591 9.54771 5.94211 9.47075 5.98157 9.37417L6.25823 8.69667H7.98323L8.23157 9.36333C8.24851 9.41317 8.27527 9.45909 8.31029 9.49839C8.3453 9.53769 8.38784 9.56956 8.4354 9.59212C8.48295 9.61467 8.53455 9.62746 8.58713 9.62971C8.63972 9.63196 8.69222 9.62364 8.74153 9.60523C8.79084 9.58682 8.83595 9.55871 8.8742 9.52255C8.91244 9.48639 8.94304 9.44292 8.96418 9.39472C8.98532 9.34652 8.99657 9.29457 8.99727 9.24194C8.99796 9.18931 8.98809 9.13708 8.96823 9.08833L8.68073 8.31667ZM5.91157 5.75167C5.91179 5.70002 5.90179 5.64884 5.88215 5.60108C5.86252 5.55331 5.83363 5.5099 5.79715 5.47334C5.76067 5.43679 5.71732 5.4078 5.66959 5.38807C5.62187 5.36833 5.57071 5.35822 5.51907 5.35833H2.8149C2.71058 5.35833 2.61053 5.39977 2.53677 5.47354C2.46301 5.5473 2.42157 5.64735 2.42157 5.75167C2.42157 5.85599 2.46301 5.95603 2.53677 6.0298C2.61053 6.10356 2.71058 6.145 2.8149 6.145H3.78157V9.25833C3.78157 9.36265 3.82301 9.4627 3.89677 9.53646C3.97053 9.61023 4.07058 9.65167 4.1749 9.65167C4.27922 9.65167 4.37926 9.61023 4.45303 9.53646C4.52679 9.4627 4.56823 9.36265 4.56823 9.25833V6.145H5.51823C5.56995 6.14522 5.62119 6.1352 5.66901 6.11551C5.71684 6.09582 5.76028 6.06686 5.79685 6.03029C5.83342 5.99372 5.86239 5.95027 5.88207 5.90245C5.90176 5.85463 5.91179 5.80338 5.91157 5.75167Z" fill="#040404"/>
</svg>
