<svg width="24" height="22" viewBox="0 0 24 22" fill="none" xmlns="http://www.w3.org/2000/svg">
<mask id="path-1-inside-1_8094_434" fill="white">
<path fill-rule="evenodd" clip-rule="evenodd" d="M12.4744 10.5C15.2358 10.5 17.4744 8.26142 17.4744 5.5C17.4744 2.73858 15.2358 0.5 12.4744 0.5C9.71294 0.5 7.47436 2.73858 7.47436 5.5C7.47436 8.26142 9.71294 10.5 12.4744 10.5ZM3.97436 12.9H3.54191L3.40515 13.3103L0.905151 20.8103L2.04357 21.1897L4.40682 14.1H20.5134L22.3946 21.1546L23.5541 20.8454L21.5541 13.3454L21.4353 12.9H20.9744H3.97436Z"/>
</mask>
<path d="M3.54191 12.9V11.9H2.82115L2.59322 12.5838L3.54191 12.9ZM3.40515 13.3103L4.35383 13.6265L4.35383 13.6265L3.40515 13.3103ZM0.905151 20.8103L-0.0435319 20.494L-0.359759 21.4427L0.588923 21.7589L0.905151 20.8103ZM2.04357 21.1897L1.72734 22.1384L2.67603 22.4546L2.99225 21.506L2.04357 21.1897ZM4.40682 14.1V13.1H3.68606L3.45813 13.7838L4.40682 14.1ZM20.5134 14.1L21.4796 13.8423L21.2817 13.1H20.5134V14.1ZM22.3946 21.1546L21.4284 21.4123L21.686 22.3785L22.6523 22.1208L22.3946 21.1546ZM23.5541 20.8454L23.8118 21.8116L24.778 21.554L24.5203 20.5877L23.5541 20.8454ZM21.5541 13.3454L22.5203 13.0877L21.5541 13.3454ZM21.4353 12.9L22.4016 12.6423L22.2036 11.9H21.4353V12.9ZM16.4744 5.5C16.4744 7.70914 14.6835 9.5 12.4744 9.5V11.5C15.7881 11.5 18.4744 8.81371 18.4744 5.5H16.4744ZM12.4744 1.5C14.6835 1.5 16.4744 3.29086 16.4744 5.5H18.4744C18.4744 2.18629 15.7881 -0.5 12.4744 -0.5V1.5ZM8.47436 5.5C8.47436 3.29086 10.2652 1.5 12.4744 1.5V-0.5C9.16065 -0.5 6.47436 2.18629 6.47436 5.5H8.47436ZM12.4744 9.5C10.2652 9.5 8.47436 7.70914 8.47436 5.5H6.47436C6.47436 8.81371 9.16065 11.5 12.4744 11.5V9.5ZM3.54191 13.9H3.97436V11.9H3.54191V13.9ZM4.35383 13.6265L4.49059 13.2162L2.59322 12.5838L2.45647 12.994L4.35383 13.6265ZM1.85383 21.1265L4.35383 13.6265L2.45647 12.994L-0.0435319 20.494L1.85383 21.1265ZM2.3598 20.2411L1.22138 19.8616L0.588923 21.7589L1.72734 22.1384L2.3598 20.2411ZM3.45813 13.7838L1.09489 20.8735L2.99225 21.506L5.3555 14.4162L3.45813 13.7838ZM20.5134 13.1H4.40682V15.1H20.5134V13.1ZM23.3609 20.8969L21.4796 13.8423L19.5472 14.3577L21.4284 21.4123L23.3609 20.8969ZM23.2964 19.8792L22.137 20.1884L22.6523 22.1208L23.8118 21.8116L23.2964 19.8792ZM20.5879 13.6031L22.5879 21.1031L24.5203 20.5877L22.5203 13.0877L20.5879 13.6031ZM20.4691 13.1577L20.5879 13.6031L22.5203 13.0877L22.4016 12.6423L20.4691 13.1577ZM20.9744 13.9H21.4353V11.9H20.9744V13.9ZM3.97436 13.9H20.9744V11.9H3.97436V13.9Z" fill="black" mask="url(#path-1-inside-1_8094_434)"/>
</svg>
