<svg width="120" height="120" viewBox="0 0 120 120" fill="none" xmlns="http://www.w3.org/2000/svg">
<g clip-path="url(#clip0_110_460)">
<rect width="120" height="120" rx="20" fill="#6CBAFF"/>
<path d="M21.4634 99C1.95122 99 -10 85.4706 -10 64.6845C-10 44.1444 2.19512 30 20.6098 30C35.7317 30 50 39.4706 50 63.5775V68.2513H2.92683C3.29268 80.9198 10.6707 88.1765 21.5854 88.1765C29.0244 88.1765 33.7805 84.9786 35.9756 80.9198H49.1463C46.2195 91.7433 35.9756 99 21.4634 99ZM3.04878 58.4118H37.1951C37.1951 48.2032 30.7317 40.8235 20.7317 40.8235C10.3049 40.8235 3.53659 48.9412 3.04878 58.4118Z" fill="white"/>
<path d="M117.016 87.5684C117.016 89.9525 116.559 92.0205 115.647 93.7724C114.735 95.5138 113.481 96.8459 111.884 97.7684C110.298 98.6806 108.505 99.1367 106.505 99.1367C104.494 99.1367 102.69 98.6754 101.094 97.7529C99.4972 96.8303 98.2429 95.4983 97.3307 93.7568C96.4185 92.005 95.9624 89.9422 95.9624 87.5684C95.9624 85.1842 96.4185 83.1214 97.3307 81.3799C98.2429 79.6281 99.4972 78.296 101.094 77.3838C102.69 76.4613 104.494 76 106.505 76C108.505 76 110.298 76.4613 111.884 77.3838C113.481 78.296 114.735 79.6281 115.647 81.3799C116.559 83.1214 117.016 85.1842 117.016 87.5684ZM112.258 87.5684C112.258 85.9824 112.019 84.6348 111.542 83.5257C111.076 82.4165 110.412 81.5769 109.552 81.0067C108.692 80.4262 107.676 80.136 106.505 80.136C105.333 80.136 104.312 80.4262 103.441 81.0067C102.581 81.5769 101.912 82.4217 101.436 83.5412C100.959 84.6504 100.72 85.9927 100.72 87.5684C100.72 89.144 100.959 90.4915 101.436 91.6111C101.912 92.7202 102.581 93.565 103.441 94.1455C104.312 94.7157 105.333 95.0007 106.505 95.0007C107.676 95.0007 108.692 94.7157 109.552 94.1455C110.412 93.565 111.076 92.7202 111.542 91.6111C112.019 90.5019 112.258 89.1543 112.258 87.5684Z" fill="white"/>
<path d="M73.4788 76.311H78.1434V85.6404H87.9081V76.311H92.6039V98.8258H87.9081V89.4965H78.1434V98.8258H73.4788V76.311Z" fill="white"/>
<path d="M65.4867 84.1476C65.3623 83.3287 65.0772 82.6186 64.6315 82.0174C64.1858 81.4058 63.6156 80.9394 62.9211 80.618C62.2266 80.2967 61.444 80.136 60.5732 80.136C59.4019 80.136 58.3757 80.4314 57.4946 81.0223C56.6238 81.6028 55.95 82.4528 55.4732 83.5723C54.9964 84.6815 54.758 86.0135 54.758 87.5684C54.758 89.1543 54.9964 90.5071 55.4732 91.6266C55.95 92.7358 56.6238 93.5754 57.4946 94.1455C58.3653 94.7157 59.3812 95.0007 60.5421 95.0007C61.8379 95.0007 62.9263 94.6586 63.8074 93.9745C64.6989 93.2903 65.2586 92.347 65.4867 91.1446L70.2135 91.1757C70.0373 92.5958 69.5346 93.9123 68.7053 95.1251C67.876 96.3379 66.7565 97.3123 65.3467 98.0483C63.937 98.7739 62.3147 99.1367 60.4799 99.1367C58.4586 99.1367 56.6549 98.6806 55.0689 97.7684C53.4829 96.8459 52.239 95.5138 51.3372 93.7724C50.4457 92.0309 50 89.9629 50 87.5684C50 85.1842 50.4509 83.1214 51.3528 81.3799C52.265 79.6281 53.514 78.296 55.1 77.3838C56.6964 76.4613 58.4897 76 60.4799 76C62.211 76 63.7763 76.3213 65.1757 76.964C66.5751 77.6067 67.7102 78.5448 68.5809 79.7784C69.462 81.0016 70.0062 82.458 70.2135 84.1476H65.4867Z" fill="white"/>
</g>
<defs>
<clipPath id="clip0_110_460">
<rect width="120" height="120" rx="20" fill="white"/>
</clipPath>
</defs>
</svg>
