<svg width="28" height="26" viewBox="0 0 28 26" fill="none" xmlns="http://www.w3.org/2000/svg">
<rect x="3.5" y="3" width="20" height="20" stroke="black" stroke-width="1.2"/>
<path d="M10.0334 11.6833L10 11.7167L9.96335 11.6833C8.38002 10.2467 7.33335 9.29667 7.33335 8.33333C7.33335 7.66667 7.83335 7.16667 8.50002 7.16667C9.01335 7.16667 9.51335 7.5 9.69002 7.95333H10.31C10.4867 7.5 10.9867 7.16667 11.5 7.16667C12.1667 7.16667 12.6667 7.66667 12.6667 8.33333C12.6667 9.29667 11.62 10.2467 10.0334 11.6833ZM11.5 6.5C10.92 6.5 10.3634 6.77 10 7.19333C9.63669 6.77 9.08002 6.5 8.50002 6.5C7.47335 6.5 6.66669 7.30333 6.66669 8.33333C6.66669 9.59 7.80002 10.62 9.51669 12.1767L10 12.6167L10.4834 12.1767C12.2 10.62 13.3334 9.59 13.3334 8.33333C13.3334 7.30333 12.5267 6.5 11.5 6.5Z" fill="black"/>
<path d="M6.5 15L20.5 15" stroke="black" stroke-width="1.2"/>
<path d="M6.5 18.5H16.5" stroke="black" stroke-width="1.2"/>
</svg>
